<svg xmlns="http://www.w3.org/2000/svg" viewBox="0 0 157.25 236.41"><defs><style>.cls-1,.cls-2,.cls-3{fill:none;}.cls-1,.cls-2,.cls-3,.cls-4{stroke:#ea0a8c;stroke-linecap:round;}.cls-1,.cls-2{stroke-linejoin:round;}.cls-1{stroke-width:5px;}.cls-2,.cls-3{stroke-width:4px;}.cls-4{fill:#ea0a8c;}</style></defs><g id="Layer_2" data-name="Layer 2"><g id="Layer_1-2" data-name="Layer 1"><path class="cls-1" d="M6.26,100.36C4.81,96-4.32,67,12.59,38.6c20.13-33.81,58.9-36,61.76-36.1,2.13,0,46.38-.31,69.21,36.47,18,29,9.26,59.27,7.82,64A272.49,272.49,0,0,0,6.26,100.36Z"/><path class="cls-2" d="M35.62,94.51l19,15.16a72.13,72.13,0,0,1,12.75,11C81.19,135.71,85.13,153,86.45,162q1.8,6.38,3.44,13.3,1.23,5.24,2.23,10.23a40.78,40.78,0,0,1,.65,13.77c-.53,4.17-1.7,7.87-8.84,23.16-2.14,4.59-4,8.41-5.3,11.16a275.33,275.33,0,0,1-35.9-32,276.2,276.2,0,0,1-27.48-34.23,53.06,53.06,0,0,1-4.52-38.7q2.29-6.76,4.46-14.14c2.13-7.27,3.69-13.26,4.58-17.24"/><path class="cls-2" d="M58.26,92.36l11.17,8.8a130.47,130.47,0,0,0,10.93,8,141.85,141.85,0,0,0,15.85,9A141.69,141.69,0,0,1,122,135.4c6,4.7,10.8,9,14.48,12.49,9,8.47,11,11.82,11.75,15.73a20,20,0,0,1-.55,9.35c-1.62,5.81-5.2,9.23-10.47,14.15A75.89,75.89,0,0,1,123.9,197a145.66,145.66,0,0,0-21.22,18.41C98.14,220.25,91.56,228,80,233.85l-1.12.56"/><path class="cls-2" d="M104.31,94.55c2.23,2,15.29,14.11,15.44,33.64.17,22.84-17.49,36.12-19.35,37.47a66.92,66.92,0,0,0-18.88,25.41,65.47,65.47,0,0,0-5.12,26q1.11,8.26,2.23,16.54a51.5,51.5,0,0,0-7.93-24.81q-2.52-3.49-5-7.41a163.29,163.29,0,0,1-9.34-16.68,69.83,69.83,0,0,1-3.94-40.21,121.85,121.85,0,0,1,13-34.35c2.07-3.68,4.2-6.64,5.86-9,2.63-3.81,5-6.94,6.81-9.25"/><path class="cls-2" d="M146.68,102.27c-5.14,3.09-8.35,7.85-8,12.28a12.25,12.25,0,0,0,6.77,9.63c2,.93,5.75,3.1,7.34,7.25,1.89,4.93-.36,9.83-2.25,14a32.28,32.28,0,0,1-5.09,7.81c-4,3.21-8.12,6.82-12.36,10.89-3.46,3.32-6.62,6.59-9.48,9.76-1.44,1.59-2.76,3.09-4,4.54-1.71,2-5.72,6.71-9.55,12.07A135,135,0,0,0,99.52,208c-2.23,3.37-4.73,6.88-7.54,10.46a162.42,162.42,0,0,1-13.35,15.07"/><path class="cls-3" d="M87.56,15.81a70.3,70.3,0,0,1,47.26,56.83"/><path class="cls-4" d="M136.1,85.43a2.85,2.85,0,0,1,2.53,2.47,2.74,2.74,0,0,1-.67,1.86,2.82,2.82,0,0,1-2,.93,2.67,2.67,0,0,1-2-.88,2.83,2.83,0,0,1-.21-3.21A2.9,2.9,0,0,1,136.1,85.43Z"/></g></g></svg>